<svg width="44" height="44" viewBox="0 0 44 44" fill="none" xmlns="http://www.w3.org/2000/svg">
<path d="M6.73511 40.3535C7.28406 42.055 8.95203 43.2103 10.6833 43.5884C12.4146 43.9666 14.2515 43.7355 16.004 43.3784C17.7436 42.9912 19.5068 42.7175 21.2823 42.5591C25.3573 42.265 31.7547 43.7985 33.0426 43.7145C34.9428 43.6094 35.6185 43.0633 36.4419 42.076C37.2653 41.0887 37.5187 39.5762 36.8219 38.4839" fill="#FFCE00"/>
<path d="M6.73511 40.3535C7.53742 42.4541 9.88102 43.5254 12.0346 43.5674C14.2515 43.6515 16.4051 42.9372 18.5798 42.5801C20.0613 42.2971 21.5687 42.1704 23.077 42.202C26.0751 42.307 29.0099 42.8952 31.9447 43.3784C33.0029 43.5954 34.1028 43.4779 35.0906 43.0423C36.653 42.202 37.7931 40.1644 36.843 38.4839C38.1943 40.5005 36.3785 43.3364 34.1827 43.7775C33.4295 43.9625 32.6461 43.9911 31.8813 43.8615C28.9466 43.4834 26.0118 42.9162 23.0559 42.8322C21.5914 42.7962 20.1269 42.9088 18.6854 43.1683C16.4684 43.4834 14.2726 44.1556 12.0135 43.9666C9.77546 43.8405 7.36851 42.5801 6.73511 40.3535V40.3535Z" fill="#161616"/>
<path d="M8.06543 19.0948C9.31113 16.8261 13.0693 16.7001 14.4206 18.9268C12.3726 17.7504 10.0712 17.8344 8.06543 19.0948Z" fill="black"/>
<path d="M23.4148 18.9476C24.9139 16.4688 29.031 16.6789 30.4878 19.1156C29.9374 18.7817 29.3491 18.5138 28.7354 18.3174C27.8588 18.0126 26.9239 17.9109 26.0018 18.0201C25.0798 18.1293 24.1949 18.4465 23.4148 18.9476V18.9476Z" fill="black"/>
<path d="M16.0038 35.0178C18.7697 34.6397 21.5356 34.8077 24.3014 34.9758C27.0673 35.1438 29.791 35.2699 32.5146 35.669C33.7337 35.8311 34.94 36.0767 36.125 36.4042C38.6642 32.996 40.027 28.862 40.0099 24.6196C40.0099 14.1585 31.9868 5.69287 22.1056 5.69287C12.2245 5.69287 4.20133 14.1795 4.20133 24.6196C4.18297 29.118 5.71846 33.486 8.55072 36.9924C10.9999 36.1521 13.4491 35.3749 16.0038 35.0178Z" fill="#F2F2F2"/>
<path fill-rule="evenodd" clip-rule="evenodd" d="M3.9904 24.6188C3.99061 14.075 12.0963 5.48242 22.1058 5.48242C32.1153 5.48242 40.2212 14.0541 40.2213 24.6192C40.2213 24.6192 40.2213 24.6192 40.2213 24.6193H40.0101L40.2212 24.6184C40.2212 24.6187 40.2213 24.6189 40.2213 24.6192C40.2383 28.9066 38.861 33.0845 36.2949 36.5289L36.2085 36.6449L36.0687 36.6062C34.8931 36.2813 33.6963 36.0376 32.4868 35.8768L32.484 35.8764C30.1146 35.5292 27.7452 35.3895 25.337 35.2475C24.9884 35.227 24.6391 35.2064 24.2888 35.1851C21.5196 35.0168 18.7749 34.8507 16.0334 35.2254L16.004 35.0174L16.0327 35.2255C16.033 35.2255 16.0332 35.2255 16.0334 35.2254C13.5004 35.5795 11.0677 36.3508 8.61975 37.1906L8.47936 37.2388L8.38634 37.1236C5.52386 33.5798 3.97194 29.1651 3.9904 24.6188ZM3.9904 24.6188C3.9904 24.619 3.9904 24.6191 3.9904 24.6193H4.20153L3.9904 24.6184C3.9904 24.6185 3.9904 24.6187 3.9904 24.6188ZM22.1058 5.90255C12.3532 5.90255 4.41267 14.2829 4.41267 24.6193L4.41267 24.6201C4.3947 29.0211 5.88017 33.2961 8.62308 36.7451C11.0271 35.9229 13.4476 35.1626 15.9746 34.8094L15.9753 34.8093C18.7619 34.4284 21.5453 34.5975 24.3044 34.7651L24.3145 34.7657C24.6636 34.7869 25.0124 34.8075 25.3607 34.828C27.7669 34.9698 30.1556 35.1106 32.5442 35.4606C33.7243 35.6175 34.8925 35.8522 36.0412 36.163C38.4982 32.8136 39.8157 28.7692 39.799 24.6201L39.799 24.6193C39.799 14.262 31.8586 5.90255 22.1058 5.90255Z" fill="black"/>
<path d="M16.7217 7.96152C19.1709 6.32302 21.4089 4.68452 23.0135 2.16376C23.1373 2.96455 23.0796 3.78274 22.8446 4.55849C25.1038 4.41145 27.1307 2.18476 28.7142 0.79834C28.4733 3.36681 27.5636 5.82845 26.075 7.94051" fill="#F2F2F2"/>
<path d="M16.7007 7.94042C19.0021 6.07085 21.3879 4.24329 23.1192 1.78554L23.1614 2.16366C23.2393 2.98888 23.1678 3.8213 22.9503 4.62141L22.8447 4.49537C24.6183 4.30631 25.9484 2.9409 27.1941 1.80655C27.8064 1.21837 28.4821 0.588179 29.1155 0C29.0099 2.89888 27.9964 5.77676 26.0962 7.98243L26.054 7.94042C26.3707 7.37324 26.6663 6.80608 26.9196 6.2389C27.4489 5.08984 27.8456 3.88478 28.102 2.64681C28.2347 2.03738 28.3264 1.41982 28.3765 0.798241L28.9254 1.07133C27.1519 2.60479 25.2306 4.6004 22.6969 4.70543C22.9736 3.90879 23.0319 3.05319 22.8658 2.22668L23.1403 2.2897C22.1058 4.22228 20.4589 5.75575 18.622 6.93211C18.0152 7.32861 17.388 7.69323 16.7429 8.02445L16.7007 7.94042V7.94042Z" fill="black"/>
<path d="M43.7261 33.6945C43.4305 32.203 41.8681 31.3207 40.4113 30.9216C38.8006 30.4603 37.1121 30.3317 35.4496 30.5435C33.5705 30.7746 31.628 31.4468 29.8334 30.8376C28.1865 30.2914 27.0675 28.821 25.8429 27.6026C24.8083 26.5943 23.436 25.67 22.0425 25.733C20.649 25.691 19.2766 26.5943 18.242 27.6026C17.0174 28.821 15.8984 30.2914 14.2516 30.8376C12.4569 31.4258 10.5145 30.7746 8.63536 30.5435C6.97283 30.3325 5.28452 30.4612 3.67368 30.9216C2.21684 31.3417 0.654437 32.224 0.358848 33.6945C0.0632579 35.1649 1.09782 36.5513 2.3013 37.4126C3.37632 38.1923 4.62012 38.7103 5.93282 38.925C8.6987 39.3872 12.0558 37.0345 12.7525 40.0804C13.0481 41.3618 16.8696 39.6183 18.1576 39.3032C18.8121 39.1351 19.4455 38.883 20.1 38.715C20.7545 38.5469 21.3879 38.5259 22.0214 38.3999C22.6548 38.5259 23.3304 38.5679 23.9427 38.715C24.5972 38.862 25.2306 39.1351 25.8851 39.3032C27.1731 39.6183 29.9178 40.3745 31.2269 40.2905C34.035 40.1434 30.0023 36.5303 37.7932 38.9671C39.06 39.3662 41.0869 38.3579 42.1426 37.5806C42.7497 37.1489 43.2209 36.5543 43.5013 35.8662C43.7817 35.1781 43.8596 34.4249 43.7261 33.6945V33.6945Z" fill="#FFCE00"/>
<path d="M43.6838 33.6943C42.9448 30.7534 38.2365 30.3333 35.724 30.6484C33.6971 30.9004 31.5435 31.7617 29.4955 30.9845C27.4475 30.2072 26.3496 28.2536 24.7027 27.0353C22.9503 25.6909 21.029 25.6699 19.2554 27.0353C17.5875 28.2536 16.384 30.2913 14.3149 30.9635C12.2035 31.6357 10.0922 30.7324 8.00191 30.5853C5.9539 30.4803 3.73697 30.7114 1.96344 31.8037C-0.126805 33.1061 0.126557 35.3118 1.85787 36.8242C3.04298 37.8106 4.47184 38.4634 5.99613 38.7148C6.49381 38.7779 6.9975 38.7779 7.49518 38.7148C9.33206 38.5258 12.3513 37.2654 12.9847 39.9332C12.9999 40.0077 13.0285 40.0789 13.0692 40.1433C13.3436 40.3533 13.9348 40.2483 14.2938 40.1853C15.8139 39.8492 17.2708 39.198 18.7909 38.7989C19.7833 38.4207 20.9445 38.2737 21.9791 38.1056C22.528 38.2107 23.0981 38.2527 23.6682 38.3787C24.5127 38.5468 25.2517 38.8829 26.0751 39.0719C26.8352 39.261 27.7009 39.4921 28.4609 39.6601C29.4533 39.8702 30.6145 40.1853 31.5858 39.9962C32.3247 39.8282 32.0925 38.9879 32.4725 38.4627C33.1481 37.6015 34.5628 38.0216 35.4495 38.1897C35.9985 38.3157 36.5263 38.4838 37.0542 38.6308L37.8354 38.8829C38.0891 38.9545 38.3533 38.9829 38.6166 38.9669C39.9467 38.8409 41.2558 38.2107 42.3114 37.3914C42.8552 36.9565 43.27 36.3829 43.5117 35.7318C43.7534 35.0806 43.8129 34.3764 43.6838 33.6943V33.6943ZM43.7472 33.6943C44.1061 35.3538 43.2404 37.1183 41.7836 37.9586C40.8335 38.5468 39.82 39.0719 38.701 39.198C38.1943 39.282 37.5187 39.0509 37.033 38.9249C36.5052 38.7778 35.9774 38.6518 35.4284 38.5468C34.6894 38.4417 33.0004 38.0006 32.8103 39.0299C32.7618 39.3171 32.684 39.5987 32.5781 39.8702C32.1136 40.7945 30.889 40.6264 30.0233 40.5424C28.6505 40.328 27.2903 40.0405 25.9484 39.6811C25.1672 39.4921 24.3649 39.156 23.5837 39.0089C23.0559 38.9039 22.5069 38.8619 21.958 38.7568H22.0847C21.0079 38.9249 20.0578 39.0299 19.0443 39.408C17.503 39.8282 16.0251 40.4584 14.4627 40.7945C13.8081 40.8995 12.8158 41.0675 12.478 40.2903C12.3724 39.8912 12.2457 39.45 11.9501 39.177C11.2323 38.5468 10.071 38.8619 9.16316 38.9879C8.63532 39.0719 8.10748 39.177 7.57964 39.219C5.04602 39.5131 1.85787 38.0426 0.569941 35.8159C-1.07692 32.686 2.13235 30.9214 4.83488 30.5223C5.88678 30.3368 6.95838 30.2874 8.02302 30.3753C9.0787 30.4593 10.1133 30.6904 11.1689 30.8374C12.7314 31.0895 14.336 30.9425 15.5817 29.9341C17.2496 28.6318 18.3687 26.6571 20.3956 25.7959C21.9369 25.1027 23.7315 25.5228 25.0405 26.5521C26.6452 27.7075 27.8064 29.7241 29.6644 30.5013C31.5646 31.2786 33.676 30.5223 35.6818 30.3543C38.2365 30.1442 43.0504 30.7534 43.7472 33.6943V33.6943Z" fill="#161616"/>
<path d="M20.1632 28.6738C19.6578 29.1445 19.0979 29.5535 18.4952 29.8922C18.3474 29.0519 19.382 28.2957 20.1632 28.6738Z" fill="black"/>
<path d="M23.3091 28.6738C24.0903 28.2957 25.1248 29.0519 24.9771 29.8922C24.3697 29.5606 23.8089 29.151 23.3091 28.6738V28.6738Z" fill="black"/>
<path d="M12.8368 29.283C16.1251 29.283 18.7909 25.6057 18.7909 21.0695C18.7909 16.5333 16.1251 12.856 12.8368 12.856C9.54852 12.856 6.88281 16.5333 6.88281 21.0695C6.88281 25.6057 9.54852 29.283 12.8368 29.283Z" fill="#F7F7F7"/>
<path fill-rule="evenodd" clip-rule="evenodd" d="M8.79815 15.3846C7.74937 16.8314 7.09415 18.8406 7.09415 21.0696C7.09415 23.2985 7.74937 25.3077 8.79815 26.7545C9.84713 28.2016 11.2778 29.073 12.837 29.073C14.3962 29.073 15.8269 28.2016 16.8759 26.7545C17.9247 25.3077 18.5799 23.2985 18.5799 21.0696C18.5799 18.8406 17.9247 16.8314 16.8759 15.3846C15.8269 13.9375 14.3962 13.0661 12.837 13.0661C11.2778 13.0661 9.84713 13.9375 8.79815 15.3846ZM8.45566 15.1389C9.5616 13.6132 11.1079 12.646 12.837 12.646C14.5662 12.646 16.1125 13.6132 17.2184 15.1389C18.3246 16.6648 19.0022 18.7623 19.0022 21.0696C19.0022 23.3768 18.3246 25.4743 17.2184 27.0003C16.1125 28.5259 14.5662 29.4931 12.837 29.4931C11.1079 29.4931 9.5616 28.5259 8.45566 27.0003C7.3495 25.4743 6.67188 23.3768 6.67188 21.0696C6.67188 18.7623 7.3495 16.6648 8.45566 15.1389Z" fill="#161616"/>
<path d="M12.8369 24.8716C14.2128 24.8716 15.3283 23.7618 15.3283 22.3928C15.3283 21.0238 14.2128 19.9141 12.8369 19.9141C11.4609 19.9141 10.3455 21.0238 10.3455 22.3928C10.3455 23.7618 11.4609 24.8716 12.8369 24.8716Z" fill="#161616"/>
<path d="M12.8371 11.7007C9.48001 11.7007 6.75636 15.4608 6.75636 20.0822C6.75587 20.5102 6.77702 20.9378 6.8197 21.3636C8.79577 21.7952 10.814 22.0066 12.8371 21.9938C14.8596 21.9961 16.8767 21.7849 18.8544 21.3636C18.8967 20.9435 18.9178 20.5024 18.9178 20.0822C18.9178 15.4398 16.2152 11.7007 12.8371 11.7007Z" fill="#DBDAD9"/>
<path d="M12.8371 11.7007C9.48001 11.7007 6.75636 15.4608 6.75636 20.0822C6.75587 20.5102 6.77702 20.9378 6.8197 21.3636C8.79577 21.7952 10.814 22.0066 12.8371 21.9938C14.8596 21.9961 16.8767 21.7849 18.8544 21.3636C18.8967 20.9435 18.9178 20.5024 18.9178 20.0822C18.9178 15.4398 16.2152 11.7007 12.8371 11.7007Z" fill="#DBDAD9"/>
<path fill-rule="evenodd" clip-rule="evenodd" d="M8.3663 14.0356C9.49524 12.4788 11.0732 11.4907 12.8368 11.4907C14.6103 11.4907 16.1884 12.4728 17.3152 14.0278C18.442 15.5828 19.1286 17.7224 19.1286 20.0823C19.1286 20.5091 19.1072 20.9573 19.0642 21.3846C19.0551 21.4755 18.9881 21.55 18.8983 21.5691C16.9063 21.9934 14.8745 22.2062 12.8373 22.204C10.7988 22.2168 8.76526 22.0038 6.77414 21.5689C6.6849 21.5494 6.61838 21.475 6.60932 21.3846C6.56594 20.9518 6.54444 20.5171 6.54493 20.0822C6.54493 20.0822 6.54493 20.0821 6.54493 20.0821L6.75607 20.0823H6.54493C6.54493 20.0823 6.54493 20.0823 6.54493 20.0822C6.54495 17.7323 7.23713 15.5928 8.3663 14.0356ZM8.70875 14.2814C7.63685 15.7596 6.9672 17.8109 6.9672 20.0823L6.9672 20.0826C6.96678 20.4526 6.98281 20.8224 7.01521 21.191C8.92789 21.5974 10.8794 21.7962 12.8354 21.7839L12.837 21.7839C14.793 21.7861 16.7438 21.5871 18.6584 21.1902C18.6903 20.8239 18.7063 20.4451 18.7063 20.0823C18.7063 17.7999 18.0417 15.7487 16.9727 14.2735C15.9037 12.7983 14.4415 11.9109 12.8368 11.9109C11.2433 11.9109 9.78089 12.8029 8.70875 14.2814Z" fill="#161616"/>
<path d="M31.6069 29.283C34.8952 29.283 37.5609 25.6057 37.5609 21.0695C37.5609 16.5333 34.8952 12.856 31.6069 12.856C28.3185 12.856 25.6528 16.5333 25.6528 21.0695C25.6528 25.6057 28.3185 29.283 31.6069 29.283Z" fill="#F7F7F7"/>
<path fill-rule="evenodd" clip-rule="evenodd" d="M27.5679 15.3846C26.5191 16.8314 25.8639 18.8406 25.8639 21.0696C25.8639 23.2985 26.5191 25.3077 27.5679 26.7545C28.6169 28.2016 30.0476 29.073 31.6068 29.073C33.166 29.073 34.5967 28.2016 35.6457 26.7545C36.6945 25.3077 37.3497 23.2985 37.3497 21.0696C37.3497 18.8406 36.6945 16.8314 35.6457 15.3846C34.5967 13.9375 33.166 13.0661 31.6068 13.0661C30.0476 13.0661 28.6169 13.9375 27.5679 15.3846ZM27.2254 15.1389C28.3314 13.6132 29.8777 12.646 31.6068 12.646C33.3359 12.646 34.8822 13.6132 35.9882 15.1389C37.0943 16.6648 37.772 18.7623 37.772 21.0696C37.772 23.3768 37.0943 25.4743 35.9882 27.0003C34.8822 28.5259 33.3359 29.4931 31.6068 29.4931C29.8777 29.4931 28.3314 28.5259 27.2254 27.0003C26.1193 25.4743 25.4417 23.3768 25.4417 21.0696C25.4417 18.7623 26.1193 16.6648 27.2254 15.1389Z" fill="#161616"/>
<path d="M31.6069 24.8716C32.9828 24.8716 34.0983 23.7618 34.0983 22.3928C34.0983 21.0238 32.9828 19.9141 31.6069 19.9141C30.2309 19.9141 29.1155 21.0238 29.1155 22.3928C29.1155 23.7618 30.2309 24.8716 31.6069 24.8716Z" fill="#161616"/>
<path d="M31.5138 11.7007C28.1568 11.7007 25.4331 15.4608 25.4331 20.0822C25.4326 20.5102 25.4538 20.9378 25.4965 21.3636C27.4725 21.7952 29.4907 22.0066 31.5138 21.9938C33.5364 21.9961 35.5534 21.7849 37.5312 21.3636C37.5734 20.9435 37.5945 20.5024 37.5945 20.0822C37.5945 15.4398 34.892 11.7007 31.5138 11.7007Z" fill="#DBDAD9"/>
<path d="M31.5138 11.7007C34.8709 11.7007 37.5945 15.4608 37.5945 20.0822C37.595 20.5102 37.5739 20.9378 37.5312 21.3636C35.5551 21.7952 33.5369 22.0066 31.5138 21.9938C29.4913 21.9961 27.4742 21.7849 25.4964 21.3636C25.4542 20.9435 25.4331 20.5024 25.4331 20.0822C25.4331 15.4398 28.1568 11.7007 31.5138 11.7007Z" fill="#DBDAD9"/>
<path fill-rule="evenodd" clip-rule="evenodd" d="M26.8324 14.0356C27.9613 12.4788 29.5392 11.4907 31.3028 11.4907C33.0763 11.4907 34.6545 12.4728 35.7813 14.0278C36.9081 15.5828 37.5947 17.7224 37.5947 20.0823C37.5947 20.5091 37.5732 20.9573 37.5303 21.3846C37.5212 21.4755 37.4541 21.55 37.3644 21.5691C35.3723 21.9934 33.3406 22.2062 31.3034 22.204C29.2649 22.2168 27.2313 22.0038 25.2402 21.5689C25.151 21.5494 25.0844 21.475 25.0754 21.3846C25.032 20.9518 25.0105 20.5171 25.011 20.0822C25.011 20.0822 25.011 20.0821 25.011 20.0821L25.2221 20.0823H25.011C25.011 20.0823 25.011 20.0823 25.011 20.0822C25.011 17.7323 25.7032 15.5928 26.8324 14.0356ZM27.1748 14.2814C26.1029 15.7596 25.4333 17.8109 25.4333 20.0823L25.4333 20.0826C25.4328 20.4526 25.4489 20.8224 25.4813 21.191C27.394 21.5974 29.3454 21.7962 31.3015 21.7839L31.3031 21.7839C33.259 21.7861 35.2099 21.5871 37.1244 21.1902C37.1564 20.8239 37.1724 20.4451 37.1724 20.0823C37.1724 17.7999 36.5078 15.7487 35.4387 14.2735C34.3697 12.7983 32.9075 11.9109 31.3028 11.9109C29.7094 11.9109 28.247 12.8029 27.1748 14.2814Z" fill="#161616"/>
<path d="M10.8522 33.1479C9.66988 35.1015 8.50864 37.0551 7.32628 39.0297C6.94623 39.6389 6.56619 40.3531 6.7351 41.0464C6.81321 41.3014 6.94358 41.5377 7.118 41.7401C7.29243 41.9426 7.50712 42.1069 7.74855 42.2227C8.1414 42.4308 8.57422 42.5533 9.01831 42.5823C9.4624 42.6113 9.90761 42.546 10.3244 42.3908" fill="#FFCE00"/>
<path d="M10.8522 33.1479C10.1765 34.6604 9.37421 36.1099 8.55078 37.5593L7.70624 38.9877C7.40552 39.4095 7.17721 39.878 7.03061 40.3742C6.75613 41.4245 7.7907 42.1597 8.71969 42.3698C9.24707 42.4958 9.79695 42.4958 10.3243 42.3698C8.86749 43.231 6.03827 42.3067 6.43942 40.2481C6.56611 39.6179 6.88281 39.1348 7.15729 38.6516L8.02294 37.2442C8.93082 35.8368 9.83871 34.4503 10.8522 33.1479V33.1479Z" fill="#161616"/>
<path d="M33.8027 33.1479C34.9851 35.1015 36.1463 37.0551 37.3287 39.0297C37.7087 39.6389 38.0888 40.3531 37.9199 41.0464C37.8418 41.3014 37.7114 41.5377 37.537 41.7401C37.3625 41.9426 37.1478 42.1069 36.9064 42.2227C36.5136 42.4308 36.0807 42.5533 35.6367 42.5823C35.1926 42.6113 34.7474 42.546 34.3306 42.3908" fill="#FFCE00"/>
<path d="M33.8027 33.1479C34.8162 34.4714 35.7241 35.8578 36.6108 37.2652L37.4765 38.6726C37.751 39.1558 38.0677 39.6389 38.1944 40.2691C38.5955 42.3278 35.7663 43.252 34.3095 42.3698C34.8368 42.4959 35.3867 42.4959 35.9141 42.3698C36.8431 42.1597 37.8777 41.4035 37.6032 40.3742C37.4566 39.878 37.2283 39.4095 36.9275 38.9877L36.083 37.5593C35.2807 36.1099 34.4995 34.6604 33.8027 33.1479Z" fill="#161616"/>
<path d="M10.3456 37.1392C5.72178 39.6599 6.48187 41.2774 7.38975 42.0126C7.42891 42.0353 7.46448 42.0636 7.49532 42.0967C8.19207 42.6008 9.14218 42.7899 10.0501 42.8319C12.9637 42.9789 15.6663 41.7396 18.4744 41.0464C19.7142 40.7471 20.9795 40.5642 22.2537 40.5002H22.5071C23.7814 40.5628 25.0468 40.7456 26.2864 41.0464C29.0945 41.7186 31.797 42.9579 34.7107 42.8319C35.6397 42.7899 36.5687 42.5798 37.2654 42.0967C37.3046 42.074 37.3402 42.0457 37.371 42.0126C38.2789 41.2774 38.5956 38.7567 34.2251 37.2862" fill="#FFCE00"/>
<path d="M10.3455 37.1392C9.20535 37.8534 7.95965 38.6096 7.17845 39.744C6.6295 40.5632 6.7773 41.4035 7.57962 41.9496C8.71975 42.6849 10.1555 42.6638 11.4856 42.5588C14.906 42.1387 18.1575 40.4162 21.6624 40.2481C22.8447 40.1431 24.0271 40.3321 25.1883 40.5212C27.9331 40.9833 30.53 42.2437 33.2537 42.5378C35.2173 42.7899 38.8066 42.4328 37.4975 39.6179C36.8008 38.4206 35.4706 37.7694 34.2249 37.2652C35.1256 37.5172 35.9756 37.9223 36.7374 38.4626C37.8142 39.2398 38.5954 40.7733 37.6664 41.9496C36.5263 43.084 34.7316 43.105 33.2326 43.021C29.9389 42.7269 27.0041 41.1934 23.7526 40.9203C21.4723 40.6262 19.2132 41.1304 17.0174 41.7606C14.3782 42.5168 11.5067 43.5251 8.71975 42.8529C7.81186 42.6008 6.75618 42.0337 6.58728 41.0043C6.39725 39.1978 8.99422 37.8534 10.3455 37.1392V37.1392Z" fill="#161616"/>
<path d="M16.1938 36.2358C19.5509 34.6184 23.7736 34.4713 27.1518 36.1518C27.377 36.2674 27.5834 36.4161 27.7641 36.593C27.5482 36.4804 27.322 36.389 27.0884 36.3199C23.5414 35.2696 19.7832 35.4376 16.1938 36.2358V36.2358Z" fill="#161616"/>
<path d="M4.01147 34.6393C5.72167 34.4713 7.3263 33.7991 8.97316 33.3369C9.58545 33.1899 10.1978 32.9168 10.8523 33.1269L10.5778 33.694C10.4888 33.6634 10.3968 33.6423 10.3033 33.631C8.19196 33.7781 6.14394 34.6603 4.01147 34.6393V34.6393Z" fill="#161616"/>
<path d="M40.6645 34.6603C38.5321 34.6813 36.484 33.7991 34.3727 33.673C34.2767 33.6631 34.1801 33.6853 34.0982 33.736L33.8237 33.1689C34.4783 32.9588 35.0905 33.2319 35.7028 33.3789C37.3497 33.8201 38.9332 34.4923 40.6645 34.6603V34.6603Z" fill="#161616"/>
<path d="M26.5605 11.5326C28.4397 8.88583 33.528 9.11691 35.3438 11.7007C34.6529 11.3509 33.9322 11.0626 33.1902 10.8394C30.9741 10.2 28.5946 10.4488 26.5605 11.5326V11.5326Z" fill="black"/>
<path d="M9.14209 11.5326C11.0212 8.88583 16.1096 9.11691 17.9253 11.7007C17.2345 11.3509 16.5138 11.0626 15.7717 10.8394C13.5559 10.1977 11.1754 10.4466 9.14209 11.5326V11.5326Z" fill="black"/>
</svg>
