<svg width="206" height="44" viewBox="0 0 206 44" fill="none" xmlns="http://www.w3.org/2000/svg">
<g clip-path="url(#clip0_640_5154)">
<path d="M17.047 27.2033C16.7607 29.1648 15.7798 30.9601 14.2811 32.2658C12.7609 33.6313 10.924 34.1984 8.81269 34.0094C8.72824 35.0597 8.62267 35.942 8.5171 36.6562C8.41154 37.3704 8.28486 37.8115 8.13706 37.9796C7.94704 38.3367 6.99693 38.5468 5.32896 38.6308C3.66099 38.7148 2.45751 38.5888 1.76077 38.2947C1.44406 38.1476 1.16959 37.2444 0.916224 35.5638C0.662862 33.8833 0.47284 31.9718 0.325045 29.8501C0.17725 27.7285 0.0927966 25.7118 0.0294559 23.7583C-0.0338848 21.8047 -0.0127715 20.4813 0.0505691 19.8301C0.11391 19.2209 0.641749 18.7377 1.63409 18.4016C2.75678 18.0497 3.9208 17.8449 5.09671 17.7924C6.41334 17.7122 7.73451 17.7473 9.04494 17.8975C10.3751 18.0445 11.4097 18.2546 12.1486 18.5697C16.0546 20.2082 17.6874 23.086 17.047 27.2033ZM11.1352 25.5648C10.924 24.5775 10.2484 24.0313 9.1294 23.9053C8.9602 23.8999 8.79083 23.9069 8.62267 23.9263C7.7359 24.0733 7.35586 24.7035 7.4192 25.7959C7.48254 26.8882 7.79924 27.6024 8.30597 27.9175C8.5171 28.0646 8.85492 28.1066 9.29831 28.0225C9.5929 27.9929 9.87815 27.9029 10.1361 27.7583C10.3941 27.6137 10.6192 27.4176 10.7974 27.1823C10.9677 26.9529 11.0862 26.6896 11.1445 26.4104C11.2028 26.1312 11.1996 25.8427 11.1352 25.5648ZM39.8918 29.7031C39.6842 31.0767 39.2062 32.3961 38.4852 33.5856C37.7642 34.7751 36.8144 35.8114 35.6902 36.6352C33.3678 38.3997 30.6863 39.0089 27.6038 38.5047C24.6479 38.0216 22.3043 36.6142 20.5941 34.2825C19.7657 33.1949 19.1729 31.9484 18.8531 30.6215C18.5334 29.2946 18.4935 27.9161 18.7361 26.5731C19.1583 23.9473 20.4463 21.7416 22.5576 19.9771C23.5667 19.1054 24.7456 18.4503 26.0208 18.0527C27.296 17.6551 28.6399 17.5236 29.9685 17.6664C33.3466 17.9605 35.9858 19.2419 37.8649 21.5106C39.744 23.7793 40.3986 26.4891 39.8918 29.7031ZM31.9954 28.5267C32.0674 28.1818 32.0651 27.8256 31.9886 27.4816C31.9122 27.1377 31.7634 26.8137 31.552 26.5311C31.3256 26.2463 31.045 26.0088 30.7261 25.8321C30.4073 25.6555 30.0565 25.5432 29.694 25.5018C29.3397 25.4329 28.9744 25.4424 28.6242 25.5295C28.2739 25.6167 27.9472 25.7793 27.6671 26.0059C27.3867 26.2135 27.1508 26.4746 26.9732 26.774C26.7955 27.0733 26.6797 27.405 26.6325 27.7495C26.5546 28.154 26.5794 28.5714 26.7047 28.964C26.8301 29.3565 27.052 29.7116 27.3504 29.9971C27.862 30.5092 28.5544 30.8023 29.28 30.8141C30.0056 30.8258 30.7071 30.5553 31.2353 30.0602C31.6471 29.6431 31.9135 29.1056 31.9954 28.5267ZM51.3565 24.4725C51.1687 24.4861 50.982 24.4341 50.8287 24.3254C50.7494 24.2786 50.6816 24.2146 50.6305 24.1383C50.5793 24.0619 50.546 23.9751 50.5331 23.8843C50.5282 23.791 50.5006 23.7002 50.4528 23.6197C50.405 23.5392 50.3384 23.4715 50.2586 23.4221C49.7941 23.065 49.224 23.1281 48.5062 23.6112C47.7883 24.0944 48.0839 24.4725 49.3929 24.7245C49.5429 24.7496 49.6911 24.7847 49.8363 24.8296C50.0052 24.8506 50.1741 24.8926 50.3431 24.9136C52.4544 25.2707 54.1013 25.9009 55.3258 26.7832C56.8249 27.8755 57.6906 29.3039 57.9017 31.0685C58.0255 31.9161 57.957 32.7805 57.7012 33.5984C57.4455 34.4162 57.009 35.1668 56.4238 35.7949C54.988 37.4334 53.0667 38.3997 50.6175 38.6308C48.1684 38.8618 46.0781 38.3577 44.3046 37.0973C42.7844 36.026 41.8132 34.6816 41.4331 33.0641C41.2642 32.3079 41.6443 31.6987 42.5944 31.2785C43.0251 31.0822 43.4792 30.9411 43.9456 30.8584C44.4209 30.7814 44.9003 30.7323 45.3814 30.7114C46.0671 30.6976 46.7509 30.7897 47.4083 30.9845C48.0206 31.1525 48.3584 31.4046 48.4428 31.7407C48.4543 31.8065 48.4757 31.8702 48.5062 31.9297C48.5623 32.0476 48.6417 32.1529 48.7396 32.2395C48.8376 32.3262 48.9521 32.3923 49.0762 32.4339C49.2669 32.5059 49.4705 32.5375 49.6741 32.5267C49.8777 32.5158 50.0768 32.4628 50.2586 32.3709C50.7231 32.1818 50.8498 31.8877 50.6598 31.4466C50.5542 31.2365 50.2797 31.0895 49.8363 30.9634C48.7856 30.6525 47.7128 30.4207 46.6271 30.2702C45.5276 30.0921 44.49 29.6445 43.6078 28.9678C42.893 28.4539 42.3312 27.757 41.9821 26.9512C41.602 26.09 41.4754 24.9556 41.602 23.5482C41.7921 21.6366 42.6999 20.0821 44.3679 18.8428C45.348 18.1197 46.4822 17.6309 47.6827 17.4143C48.88 17.1622 50.117 17.1622 51.3143 17.4143C52.4699 17.6428 53.555 18.1394 54.4813 18.8638C55.4275 19.586 56.1098 20.5969 56.4238 21.7416C56.5715 22.2038 56.4238 22.6029 56.0226 22.939C55.5835 23.2983 55.0828 23.5759 54.5446 23.7583C53.9544 23.9706 53.3469 24.1323 52.7289 24.2414C52.2791 24.3581 51.8199 24.4354 51.3565 24.4725Z" fill="white"/>
<path d="M144.657 32.5178C143.644 34.8916 142.039 36.5301 139.844 37.4123C137.652 38.2938 135.303 38.7227 132.939 38.6727C132.142 38.6608 131.345 38.6047 130.554 38.5047C129.991 38.4472 129.438 38.3202 128.907 38.1266C128.379 37.9165 127.957 36.8242 127.64 34.8706C127.308 32.7428 127.117 30.5954 127.07 28.4426C127.001 26.2771 127.065 24.1095 127.26 21.9516C127.45 19.956 127.809 18.7797 128.337 18.4646C128.864 18.1495 129.646 17.8974 130.722 17.7503C132.568 17.5204 134.436 17.5416 136.275 17.8134C138.12 18.0326 139.871 18.7439 141.343 19.872C143.158 21.3214 144.383 23.254 145.059 25.6698C145.692 28.1065 145.586 30.3752 144.657 32.5178ZM134.291 26.405C134.143 26.9091 134.101 27.6444 134.185 28.6107C134.27 29.577 134.481 30.1441 134.797 30.3122C135.08 30.4197 135.384 30.4558 135.684 30.4172C136.322 30.423 136.95 30.256 137.5 29.9341C137.736 29.7876 137.934 29.5875 138.077 29.3501C138.22 29.1127 138.305 28.8449 138.323 28.5686C138.355 28.2123 138.299 27.8535 138.159 27.5239C138.019 27.1943 137.8 26.9038 137.521 26.6781C137.007 26.19 136.348 25.8805 135.642 25.7958C135.373 25.7749 135.102 25.7962 134.84 25.8588C134.704 25.8857 134.58 25.9519 134.482 26.0491C134.384 26.1463 134.318 26.2702 134.291 26.405ZM160.471 18.8847C160.471 18.6326 160.852 18.4436 161.59 18.3175C162.391 18.1682 163.204 18.0979 164.019 18.1075C164.861 18.0999 165.702 18.1702 166.531 18.3175C167.312 18.4646 167.777 18.6956 167.925 19.0317C168.115 19.5149 168.241 20.3551 168.326 21.5525C168.415 22.846 168.429 24.1436 168.368 25.4387C168.328 26.8177 168.201 28.1928 167.988 29.5559C167.798 30.9004 167.523 31.9717 167.164 32.7489C166.429 34.3915 165.262 35.8064 163.786 36.8452C162.298 37.9028 160.544 38.5282 158.719 38.6517C156.355 38.8257 154.001 38.2123 152.026 36.9082C150.029 35.6607 148.512 33.7815 147.719 31.5726C147.444 30.8583 147.254 29.829 147.149 28.4636C147.043 27.0982 146.98 25.7538 147.001 24.3674C146.992 23.1095 147.077 21.8526 147.254 20.6072C147.402 19.4729 147.634 18.7587 147.93 18.4436C148.183 18.1915 148.711 18.0234 149.535 17.9604C150.376 17.8757 151.223 17.8546 152.068 17.8974C152.858 17.9275 153.643 18.033 154.412 18.2125C155.109 18.3595 155.446 18.5696 155.446 18.8217C155.425 19.5359 155.362 20.5232 155.278 21.8046C155.176 23.0763 155.147 24.3528 155.193 25.6277C155.234 26.7681 155.426 27.8981 155.763 28.9888C156.101 29.9551 156.692 30.4802 157.558 30.5642C158.487 30.6693 159.162 30.2492 159.564 29.3039C160.01 28.2115 160.281 27.056 160.366 25.8798C160.493 24.5464 160.535 23.2063 160.493 21.8676C160.434 20.8743 160.427 19.8787 160.471 18.8847ZM183.781 24.8715L182.577 24.9345C182.187 24.9511 181.798 25.0003 181.416 25.0816C180.432 25.2827 179.524 25.756 178.798 26.447C178.426 26.7681 178.15 27.1851 178.001 27.6521C177.852 28.1191 177.836 28.618 177.953 29.0938C178.039 29.5439 178.286 29.9475 178.65 30.2281C179.22 30.6693 179.98 30.8793 180.909 30.8793C181.733 30.8651 182.553 30.7737 183.359 30.6063C183.725 30.4803 184.127 30.5029 184.478 30.6693C184.855 30.8655 185.174 31.1548 185.407 31.5095C185.829 32.1607 186.124 33.043 186.293 34.1353C186.462 35.2277 186.399 36.1309 186.124 36.8452C185.892 37.4333 185.554 37.7694 185.09 37.8745C183.499 38.4398 181.817 38.7104 180.128 38.6727C178.459 38.6748 176.807 38.3389 175.272 37.6854C173.431 36.8995 171.882 35.5634 170.838 33.8623C169.804 32.1817 169.403 30.2491 169.614 28.1065C169.973 24.6825 171.324 22.0146 173.689 20.1031C176.053 18.1915 178.988 17.4142 182.514 17.7714C182.821 17.8133 183.115 17.9169 183.38 18.0758C183.645 18.2347 183.875 18.4456 184.055 18.6956C184.499 19.2418 184.858 20.1871 185.132 21.5525C185.407 22.9179 185.259 23.9052 184.625 24.5354C184.394 24.7453 184.094 24.8646 183.781 24.8715ZM205.486 22.8549C205.507 23.212 205.063 23.9262 204.134 25.0186C203.205 26.1109 202.129 27.2872 200.904 28.5476C202.511 29.3522 204.069 30.25 205.57 31.2365C205.866 31.4465 205.929 31.9717 205.781 32.7909C205.609 33.6786 205.34 34.545 204.979 35.3747C204.623 36.2093 204.17 36.999 203.628 37.7274C203.121 38.3996 202.635 38.6937 202.213 38.6097C201.748 38.5047 200.925 38.1686 199.743 37.6224C198.56 37.0762 197.315 36.425 195.984 35.7318C195.816 36.9712 195.647 37.6854 195.457 37.9375C195.246 38.2946 194.274 38.5257 192.564 38.6307C190.854 38.7357 189.672 38.6097 188.975 38.3156C188.658 38.1686 188.384 37.2443 188.151 35.5008C187.919 33.7572 187.729 31.7826 187.602 29.619C187.476 27.4553 187.391 25.3547 187.37 23.338C187.349 21.3214 187.37 19.977 187.476 19.3048C187.539 18.8847 188.046 18.5486 188.954 18.3175C189.933 18.0574 190.939 17.9094 191.952 17.8764C192.94 17.8261 193.93 17.8753 194.908 18.0234C195.816 18.1705 196.28 18.4225 196.343 18.7587C196.386 19.1368 196.407 19.5359 196.449 19.956C196.491 20.3761 196.512 20.8173 196.533 21.3424C197.463 20.5584 198.444 19.8356 199.468 19.1788C200.355 18.6326 200.946 18.4226 201.221 18.5276C201.938 18.8637 202.825 19.5779 203.902 20.6912C204.979 21.8046 205.507 22.5188 205.486 22.8549Z" fill="white"/>
<path d="M76.7351 40.3535C77.2841 42.055 78.952 43.2103 80.6833 43.5884C82.4146 43.9666 84.2515 43.7355 86.004 43.3784C87.7436 42.9912 89.5068 42.7175 91.2823 42.5591C95.3573 42.265 101.755 43.7985 103.043 43.7145C104.943 43.6094 105.618 43.0633 106.442 42.076C107.265 41.0887 107.519 39.5762 106.822 38.4839" fill="#FFCE00"/>
<path d="M76.7351 40.3535C77.5374 42.4541 79.881 43.5254 82.0346 43.5674C84.2515 43.6515 86.4051 42.9372 88.5798 42.5801C90.0613 42.2971 91.5687 42.1704 93.077 42.202C96.0751 42.307 99.0099 42.8952 101.945 43.3784C103.003 43.5954 104.103 43.4779 105.091 43.0423C106.653 42.202 107.793 40.1644 106.843 38.4839C108.194 40.5005 106.379 43.3364 104.183 43.7775C103.43 43.9625 102.646 43.9911 101.881 43.8615C98.9466 43.4834 96.0118 42.9162 93.0559 42.8322C91.5914 42.7962 90.1269 42.9088 88.6854 43.1683C86.4684 43.4834 84.2726 44.1556 82.0135 43.9666C79.7755 43.8405 77.3685 42.5801 76.7351 40.3535Z" fill="#161616"/>
<path d="M78.0654 19.0948C79.3111 16.8261 83.0693 16.7001 84.4206 18.9268C82.3726 17.7504 80.0712 17.8344 78.0654 19.0948Z" fill="black"/>
<path d="M93.4148 18.9476C94.9139 16.4688 99.031 16.6789 100.488 19.1156C99.9374 18.7817 99.3491 18.5138 98.7354 18.3174C97.8588 18.0126 96.9239 17.9109 96.0018 18.0201C95.0798 18.1293 94.1949 18.4465 93.4148 18.9476Z" fill="black"/>
<path d="M86.0038 35.0178C88.7697 34.6397 91.5356 34.8077 94.3014 34.9758C97.0673 35.1438 99.791 35.2699 102.515 35.669C103.734 35.8311 104.94 36.0767 106.125 36.4042C108.664 32.996 110.027 28.862 110.01 24.6196C110.01 14.1585 101.987 5.69287 92.1056 5.69287C82.2245 5.69287 74.2013 14.1795 74.2013 24.6196C74.183 29.118 75.7185 33.486 78.5507 36.9924C80.9999 36.1521 83.4491 35.3749 86.0038 35.0178Z" fill="#F2F2F2"/>
<path fill-rule="evenodd" clip-rule="evenodd" d="M73.9904 24.6188C73.9906 14.075 82.0963 5.48242 92.1058 5.48242C102.115 5.48242 110.221 14.0541 110.221 24.6192C110.221 24.6192 110.221 24.6192 110.221 24.6192H110.01L110.221 24.6184C110.221 24.6187 110.221 24.6189 110.221 24.6192C110.238 28.9066 108.861 33.0845 106.295 36.5289L106.208 36.6449L106.069 36.6062C104.893 36.2813 103.696 36.0376 102.487 35.8768L102.484 35.8764C100.115 35.5292 97.7452 35.3895 95.337 35.2475C94.9884 35.227 94.6391 35.2064 94.2888 35.1851C91.5196 35.0168 88.7749 34.8507 86.0334 35.2254L86.004 35.0174L86.0327 35.2255C86.033 35.2255 86.0332 35.2255 86.0334 35.2254C83.5004 35.5795 81.0677 36.3508 78.6197 37.1906L78.4794 37.2388L78.3863 37.1236C75.5239 33.5798 73.9719 29.1651 73.9904 24.6188ZM73.9904 24.6188C73.9904 24.619 73.9904 24.6191 73.9904 24.6192H74.2015L73.9904 24.6184C73.9904 24.6185 73.9904 24.6187 73.9904 24.6188ZM92.1058 5.90255C82.3532 5.90255 74.4127 14.2829 74.4127 24.6192L74.4127 24.6201C74.3947 29.0211 75.8802 33.2961 78.6231 36.7451C81.0271 35.9229 83.4476 35.1626 85.9746 34.8094L85.9753 34.8093C88.7619 34.4284 91.5453 34.5975 94.3044 34.7651L94.3145 34.7657C94.6636 34.7869 95.0124 34.8075 95.3607 34.828C97.7669 34.9698 100.156 35.1106 102.544 35.4606C103.724 35.6175 104.892 35.8522 106.041 36.163C108.498 32.8136 109.816 28.7692 109.799 24.6201L109.799 24.6192C109.799 14.262 101.859 5.90255 92.1058 5.90255Z" fill="black"/>
<path d="M86.7217 7.96152C89.1709 6.32302 91.4089 4.68452 93.0135 2.16376C93.1373 2.96455 93.0796 3.78274 92.8446 4.55849C95.1038 4.41145 97.1307 2.18476 98.7142 0.79834C98.4733 3.36681 97.5636 5.82845 96.075 7.94051" fill="#F2F2F2"/>
<path d="M86.7007 7.94042C89.0021 6.07085 91.3879 4.24329 93.1192 1.78554L93.1614 2.16366C93.2393 2.98888 93.1678 3.8213 92.9503 4.62141L92.8447 4.49537C94.6183 4.30631 95.9484 2.9409 97.1941 1.80655C97.8064 1.21837 98.482 0.588179 99.1155 0C99.0099 2.89888 97.9964 5.77676 96.0962 7.98243L96.054 7.94042C96.3707 7.37324 96.6663 6.80608 96.9196 6.2389C97.4489 5.08984 97.8456 3.88478 98.102 2.64681C98.2347 2.03738 98.3264 1.41982 98.3765 0.798241L98.9254 1.07133C97.1519 2.60479 95.2306 4.6004 92.6969 4.70543C92.9736 3.90879 93.0319 3.05319 92.8658 2.22668L93.1403 2.2897C92.1058 4.22228 90.4589 5.75575 88.622 6.93211C88.0152 7.32861 87.388 7.69323 86.7429 8.02445L86.7007 7.94042Z" fill="black"/>
<path d="M113.726 33.6944C113.431 32.203 111.868 31.3207 110.411 30.9216C108.801 30.4603 107.112 30.3317 105.45 30.5435C103.57 30.7746 101.628 31.4468 99.8334 30.8376C98.1865 30.2914 97.0675 28.821 95.8429 27.6026C94.8083 26.5943 93.436 25.67 92.0425 25.733C90.649 25.691 89.2766 26.5943 88.242 27.6026C87.0174 28.821 85.8984 30.2914 84.2516 30.8376C82.4569 31.4258 80.5145 30.7746 78.6354 30.5435C76.9728 30.3325 75.2845 30.4612 73.6737 30.9216C72.2168 31.3417 70.6544 32.224 70.3588 33.6944C70.0633 35.1649 71.0978 36.5513 72.3013 37.4126C73.3763 38.1923 74.6201 38.7103 75.9328 38.925C78.6987 39.3872 82.0558 37.0345 82.7525 40.0804C83.0481 41.3618 86.8696 39.6183 88.1576 39.3032C88.8121 39.1351 89.4455 38.883 90.1 38.715C90.7545 38.5469 91.3879 38.5259 92.0214 38.3999C92.6548 38.5259 93.3304 38.5679 93.9427 38.715C94.5972 38.862 95.2306 39.1351 95.8851 39.3032C97.1731 39.6183 99.9178 40.3745 101.227 40.2905C104.035 40.1434 100.002 36.5303 107.793 38.9671C109.06 39.3662 111.087 38.3579 112.143 37.5806C112.75 37.1489 113.221 36.5543 113.501 35.8662C113.782 35.1781 113.86 34.4249 113.726 33.6944Z" fill="#FFCE00"/>
<path d="M113.684 33.6943C112.945 30.7534 108.237 30.3333 105.724 30.6484C103.697 30.9004 101.544 31.7617 99.4955 30.9845C97.4475 30.2072 96.3496 28.2536 94.7027 27.0353C92.9503 25.6909 91.029 25.6699 89.2554 27.0353C87.5875 28.2536 86.384 30.2913 84.3149 30.9635C82.2035 31.6357 80.0922 30.7324 78.0019 30.5853C75.9539 30.4803 73.737 30.7114 71.9634 31.8037C69.8732 33.1061 70.1266 35.3118 71.8579 36.8242C73.043 37.8106 74.4718 38.4634 75.9961 38.7148C76.4938 38.7779 76.9975 38.7779 77.4952 38.7148C79.3321 38.5258 82.3513 37.2654 82.9847 39.9332C82.9999 40.0077 83.0285 40.0789 83.0692 40.1433C83.3436 40.3533 83.9348 40.2483 84.2938 40.1853C85.8139 39.8492 87.2708 39.198 88.7909 38.7989C89.7833 38.4207 90.9445 38.2737 91.9791 38.1056C92.528 38.2107 93.0981 38.2527 93.6682 38.3787C94.5127 38.5468 95.2517 38.8829 96.0751 39.0719C96.8352 39.261 97.7009 39.4921 98.4609 39.6601C99.4533 39.8702 100.615 40.1853 101.586 39.9962C102.325 39.8282 102.092 38.9879 102.473 38.4627C103.148 37.6015 104.563 38.0216 105.45 38.1897C105.998 38.3157 106.526 38.4838 107.054 38.6308L107.835 38.8829C108.089 38.9545 108.353 38.9829 108.617 38.9669C109.947 38.8409 111.256 38.2107 112.311 37.3914C112.855 36.9565 113.27 36.3829 113.512 35.7318C113.753 35.0806 113.813 34.3764 113.684 33.6943ZM113.747 33.6943C114.106 35.3538 113.24 37.1183 111.784 37.9586C110.833 38.5468 109.82 39.0719 108.701 39.198C108.194 39.282 107.519 39.0509 107.033 38.9249C106.505 38.7778 105.977 38.6518 105.428 38.5468C104.689 38.4417 103 38.0006 102.81 39.0299C102.762 39.3171 102.684 39.5987 102.578 39.8702C102.114 40.7945 100.889 40.6264 100.023 40.5424C98.6505 40.328 97.2903 40.0405 95.9484 39.6811C95.1672 39.4921 94.3649 39.156 93.5837 39.0089C93.0559 38.9039 92.5069 38.8619 91.958 38.7568H92.0847C91.0079 38.9249 90.0578 39.0299 89.0443 39.408C87.503 39.8282 86.0251 40.4584 84.4627 40.7945C83.8081 40.8995 82.8158 41.0675 82.478 40.2903C82.3724 39.8912 82.2457 39.45 81.9501 39.177C81.2323 38.5468 80.071 38.8619 79.1632 38.9879C78.6353 39.0719 78.1075 39.177 77.5796 39.219C75.046 39.5131 71.8579 38.0426 70.5699 35.8159C68.9231 32.686 72.1323 30.9214 74.8349 30.5223C75.8868 30.3368 76.9584 30.2874 78.023 30.3753C79.0787 30.4593 80.1133 30.6904 81.1689 30.8374C82.7313 31.0895 84.336 30.9425 85.5817 29.9341C87.2496 28.6318 88.3687 26.6571 90.3956 25.7959C91.9369 25.1027 93.7315 25.5228 95.0405 26.5521C96.6452 27.7075 97.8064 29.7241 99.6644 30.5013C101.565 31.2786 103.676 30.5223 105.682 30.3543C108.237 30.1442 113.05 30.7534 113.747 33.6943Z" fill="#161616"/>
<path d="M90.1632 28.6738C89.6578 29.1445 89.0979 29.5535 88.4952 29.8922C88.3474 29.0519 89.382 28.2957 90.1632 28.6738Z" fill="black"/>
<path d="M93.3091 28.6738C94.0903 28.2957 95.1248 29.0519 94.9771 29.8922C94.3697 29.5606 93.8089 29.151 93.3091 28.6738Z" fill="black"/>
<path d="M82.8368 29.283C86.1251 29.283 88.7909 25.6057 88.7909 21.0695C88.7909 16.5333 86.1251 12.856 82.8368 12.856C79.5485 12.856 76.8828 16.5333 76.8828 21.0695C76.8828 25.6057 79.5485 29.283 82.8368 29.283Z" fill="#F7F7F7"/>
<path fill-rule="evenodd" clip-rule="evenodd" d="M78.7981 15.3846C77.7494 16.8314 77.0941 18.8406 77.0941 21.0696C77.0941 23.2985 77.7494 25.3077 78.7981 26.7545C79.8471 28.2016 81.2778 29.073 82.837 29.073C84.3962 29.073 85.8269 28.2016 86.8759 26.7545C87.9247 25.3077 88.5799 23.2985 88.5799 21.0696C88.5799 18.8406 87.9247 16.8314 86.8759 15.3846C85.8269 13.9375 84.3962 13.0661 82.837 13.0661C81.2778 13.0661 79.8471 13.9375 78.7981 15.3846ZM78.4557 15.1389C79.5616 13.6132 81.1079 12.646 82.837 12.646C84.5662 12.646 86.1125 13.6132 87.2184 15.1389C88.3246 16.6648 89.0022 18.7623 89.0022 21.0696C89.0022 23.3768 88.3246 25.4743 87.2184 27.0003C86.1125 28.5259 84.5662 29.4931 82.837 29.4931C81.1079 29.4931 79.5616 28.5259 78.4557 27.0003C77.3495 25.4743 76.6719 23.3768 76.6719 21.0696C76.6719 18.7623 77.3495 16.6648 78.4557 15.1389Z" fill="#161616"/>
<path d="M82.8369 24.8716C84.2128 24.8716 85.3283 23.7618 85.3283 22.3928C85.3283 21.0238 84.2128 19.9141 82.8369 19.9141C81.4609 19.9141 80.3455 21.0238 80.3455 22.3928C80.3455 23.7618 81.4609 24.8716 82.8369 24.8716Z" fill="#161616"/>
<path d="M82.8371 11.7007C79.48 11.7007 76.7564 15.4608 76.7564 20.0822C76.7559 20.5102 76.777 20.9378 76.8197 21.3636C78.7958 21.7952 80.814 22.0066 82.8371 21.9938C84.8596 21.9961 86.8767 21.7849 88.8544 21.3636C88.8967 20.9435 88.9178 20.5024 88.9178 20.0822C88.9178 15.4398 86.2152 11.7007 82.8371 11.7007Z" fill="#DBDAD9"/>
<path d="M82.8371 11.7007C79.48 11.7007 76.7564 15.4608 76.7564 20.0822C76.7559 20.5102 76.777 20.9378 76.8197 21.3636C78.7958 21.7952 80.814 22.0066 82.8371 21.9938C84.8596 21.9961 86.8767 21.7849 88.8544 21.3636C88.8967 20.9435 88.9178 20.5024 88.9178 20.0822C88.9178 15.4398 86.2152 11.7007 82.8371 11.7007Z" fill="#DBDAD9"/>
<path fill-rule="evenodd" clip-rule="evenodd" d="M78.3663 14.0356C79.4952 12.4788 81.0732 11.4907 82.8368 11.4907C84.6103 11.4907 86.1884 12.4728 87.3152 14.0278C88.442 15.5828 89.1286 17.7224 89.1286 20.0823C89.1286 20.5091 89.1072 20.9573 89.0642 21.3846C89.0551 21.4755 88.9881 21.55 88.8983 21.5691C86.9063 21.9934 84.8745 22.2062 82.8373 22.204C80.7988 22.2168 78.7653 22.0038 76.7741 21.5689C76.6849 21.5494 76.6184 21.475 76.6093 21.3846C76.5659 20.9518 76.5444 20.5171 76.5449 20.0822C76.5449 20.0822 76.5449 20.0821 76.5449 20.0821L76.7561 20.0823H76.5449C76.5449 20.0823 76.5449 20.0823 76.5449 20.0822C76.545 17.7323 77.2371 15.5928 78.3663 14.0356ZM78.7087 14.2814C77.6369 15.7596 76.9672 17.8109 76.9672 20.0823L76.9672 20.0826C76.9668 20.4526 76.9828 20.8224 77.0152 21.191C78.9279 21.5974 80.8794 21.7962 82.8354 21.7839L82.837 21.7839C84.793 21.7861 86.7438 21.5871 88.6584 21.1902C88.6903 20.8239 88.7063 20.4451 88.7063 20.0823C88.7063 17.7999 88.0417 15.7487 86.9727 14.2735C85.9037 12.7983 84.4415 11.9109 82.8368 11.9109C81.2433 11.9109 79.7809 12.8029 78.7087 14.2814Z" fill="#161616"/>
<path d="M101.607 29.283C104.895 29.283 107.561 25.6057 107.561 21.0695C107.561 16.5333 104.895 12.856 101.607 12.856C98.3185 12.856 95.6528 16.5333 95.6528 21.0695C95.6528 25.6057 98.3185 29.283 101.607 29.283Z" fill="#F7F7F7"/>
<path fill-rule="evenodd" clip-rule="evenodd" d="M97.5679 15.3846C96.5191 16.8314 95.8639 18.8406 95.8639 21.0696C95.8639 23.2985 96.5191 25.3077 97.5679 26.7545C98.6169 28.2016 100.048 29.073 101.607 29.073C103.166 29.073 104.597 28.2016 105.646 26.7545C106.694 25.3077 107.35 23.2985 107.35 21.0696C107.35 18.8406 106.694 16.8314 105.646 15.3846C104.597 13.9375 103.166 13.0661 101.607 13.0661C100.048 13.0661 98.6169 13.9375 97.5679 15.3846ZM97.2254 15.1389C98.3314 13.6132 99.8777 12.646 101.607 12.646C103.336 12.646 104.882 13.6132 105.988 15.1389C107.094 16.6648 107.772 18.7623 107.772 21.0696C107.772 23.3768 107.094 25.4743 105.988 27.0003C104.882 28.5259 103.336 29.4931 101.607 29.4931C99.8777 29.4931 98.3314 28.5259 97.2254 27.0003C96.1193 25.4743 95.4417 23.3768 95.4417 21.0696C95.4417 18.7623 96.1193 16.6648 97.2254 15.1389Z" fill="#161616"/>
<path d="M101.607 24.8716C102.983 24.8716 104.098 23.7618 104.098 22.3928C104.098 21.0238 102.983 19.9141 101.607 19.9141C100.231 19.9141 99.1155 21.0238 99.1155 22.3928C99.1155 23.7618 100.231 24.8716 101.607 24.8716Z" fill="#161616"/>
<path d="M101.514 11.7007C98.1568 11.7007 95.4331 15.4608 95.4331 20.0822C95.4326 20.5102 95.4538 20.9378 95.4965 21.3636C97.4725 21.7952 99.4907 22.0066 101.514 21.9938C103.536 21.9961 105.553 21.7849 107.531 21.3636C107.573 20.9435 107.595 20.5024 107.595 20.0822C107.595 15.4398 104.892 11.7007 101.514 11.7007Z" fill="#DBDAD9"/>
<path d="M101.514 11.7007C104.871 11.7007 107.595 15.4608 107.595 20.0822C107.595 20.5102 107.574 20.9378 107.531 21.3636C105.555 21.7952 103.537 22.0066 101.514 21.9938C99.4913 21.9961 97.4742 21.7849 95.4964 21.3636C95.4542 20.9435 95.4331 20.5024 95.4331 20.0822C95.4331 15.4398 98.1568 11.7007 101.514 11.7007Z" fill="#DBDAD9"/>
<path fill-rule="evenodd" clip-rule="evenodd" d="M96.8324 14.0356C97.9613 12.4788 99.5392 11.4907 101.303 11.4907C103.076 11.4907 104.654 12.4728 105.781 14.0278C106.908 15.5828 107.595 17.7224 107.595 20.0823C107.595 20.5091 107.573 20.9573 107.53 21.3846C107.521 21.4755 107.454 21.55 107.364 21.5691C105.372 21.9934 103.341 22.2062 101.303 22.204C99.2649 22.2168 97.2313 22.0038 95.2402 21.5689C95.151 21.5494 95.0844 21.475 95.0754 21.3846C95.032 20.9518 95.0105 20.5171 95.011 20.0822C95.011 20.0822 95.011 20.0821 95.011 20.0821L95.2221 20.0823H95.011C95.011 20.0823 95.011 20.0823 95.011 20.0822C95.011 17.7323 95.7032 15.5928 96.8324 14.0356ZM97.1748 14.2814C96.1029 15.7596 95.4333 17.8109 95.4333 20.0823L95.4333 20.0826C95.4328 20.4526 95.4489 20.8224 95.4813 21.191C97.394 21.5974 99.3454 21.7962 101.302 21.7839L101.303 21.7839C103.259 21.7861 105.21 21.5871 107.124 21.1902C107.156 20.8239 107.172 20.4451 107.172 20.0823C107.172 17.7999 106.508 15.7487 105.439 14.2735C104.37 12.7983 102.908 11.9109 101.303 11.9109C99.7094 11.9109 98.247 12.8029 97.1748 14.2814Z" fill="#161616"/>
<path d="M80.8522 33.1479C79.6699 35.1015 78.5086 37.0551 77.3263 39.0297C76.9462 39.6389 76.5662 40.3531 76.7351 41.0464C76.8132 41.3014 76.9436 41.5377 77.118 41.7401C77.2924 41.9426 77.5071 42.1069 77.7485 42.2227C78.1414 42.4308 78.5742 42.5533 79.0183 42.5823C79.4624 42.6113 79.9076 42.546 80.3244 42.3908" fill="#FFCE00"/>
<path d="M80.8522 33.1479C80.1765 34.6604 79.3742 36.1099 78.5508 37.5593L77.7062 38.9877C77.4055 39.4095 77.1772 39.878 77.0306 40.3742C76.7561 41.4245 77.7907 42.1597 78.7197 42.3698C79.2471 42.4958 79.7969 42.4958 80.3243 42.3698C78.8675 43.231 76.0383 42.3067 76.4394 40.2481C76.5661 39.6179 76.8828 39.1348 77.1573 38.6516L78.0229 37.2442C78.9308 35.8368 79.8387 34.4503 80.8522 33.1479Z" fill="#161616"/>
<path d="M103.803 33.1479C104.985 35.1015 106.146 37.0551 107.329 39.0297C107.709 39.6389 108.089 40.3531 107.92 41.0464C107.842 41.3014 107.711 41.5377 107.537 41.7401C107.363 41.9426 107.148 42.1069 106.906 42.2227C106.514 42.4308 106.081 42.5533 105.637 42.5823C105.193 42.6113 104.747 42.546 104.331 42.3908" fill="#FFCE00"/>
<path d="M103.803 33.1479C104.816 34.4714 105.724 35.8578 106.611 37.2652L107.476 38.6726C107.751 39.1558 108.068 39.6389 108.194 40.2691C108.596 42.3278 105.766 43.252 104.309 42.3698C104.837 42.4959 105.387 42.4959 105.914 42.3698C106.843 42.1597 107.878 41.4035 107.603 40.3742C107.457 39.878 107.228 39.4095 106.928 38.9877L106.083 37.5593C105.281 36.1099 104.499 34.6604 103.803 33.1479Z" fill="#161616"/>
<path d="M80.3456 37.1392C75.7218 39.6599 76.4819 41.2774 77.3898 42.0126C77.4289 42.0353 77.4645 42.0636 77.4953 42.0967C78.1921 42.6008 79.1422 42.7899 80.0501 42.8319C82.9637 42.9789 85.6663 41.7396 88.4744 41.0464C89.7142 40.7471 90.9795 40.5642 92.2537 40.5002H92.5071C93.7814 40.5628 95.0468 40.7456 96.2864 41.0464C99.0945 41.7186 101.797 42.9579 104.711 42.8319C105.64 42.7899 106.569 42.5798 107.265 42.0967C107.305 42.074 107.34 42.0457 107.371 42.0126C108.279 41.2774 108.596 38.7567 104.225 37.2862" fill="#FFCE00"/>
<path d="M80.3455 37.1392C79.2054 37.8534 77.9597 38.6096 77.1785 39.744C76.6295 40.5632 76.7773 41.4035 77.5796 41.9496C78.7197 42.6849 80.1555 42.6638 81.4856 42.5588C84.906 42.1387 88.1575 40.4162 91.6624 40.2481C92.8447 40.1431 94.0271 40.3321 95.1883 40.5212C97.9331 40.9833 100.53 42.2437 103.254 42.5378C105.217 42.7899 108.807 42.4328 107.498 39.6179C106.801 38.4206 105.471 37.7694 104.225 37.2652C105.126 37.5172 105.976 37.9223 106.737 38.4626C107.814 39.2398 108.595 40.7733 107.666 41.9496C106.526 43.084 104.732 43.105 103.233 43.021C99.9389 42.7269 97.0041 41.1934 93.7526 40.9203C91.4723 40.6262 89.2132 41.1304 87.0174 41.7606C84.3782 42.5168 81.5067 43.5251 78.7197 42.8529C77.8119 42.6008 76.7562 42.0337 76.5873 41.0043C76.3973 39.1978 78.9942 37.8534 80.3455 37.1392Z" fill="#161616"/>
<path d="M86.1938 36.2358C89.5509 34.6184 93.7736 34.4713 97.1518 36.1518C97.377 36.2674 97.5834 36.4161 97.7641 36.593C97.5482 36.4804 97.322 36.389 97.0884 36.3199C93.5414 35.2696 89.7832 35.4376 86.1938 36.2358Z" fill="#161616"/>
<path d="M74.0115 34.6393C75.7217 34.4713 77.3263 33.7991 78.9732 33.3369C79.5855 33.1899 80.1978 32.9168 80.8523 33.1269L80.5778 33.694C80.4888 33.6634 80.3968 33.6423 80.3033 33.631C78.192 33.7781 76.1439 34.6603 74.0115 34.6393Z" fill="#161616"/>
<path d="M110.665 34.6603C108.532 34.6813 106.484 33.7991 104.373 33.673C104.277 33.6631 104.18 33.6853 104.098 33.736L103.824 33.1689C104.478 32.9588 105.091 33.2319 105.703 33.3789C107.35 33.8201 108.933 34.4923 110.665 34.6603Z" fill="#161616"/>
<path d="M96.5605 11.5326C98.4397 8.88583 103.528 9.11691 105.344 11.7007C104.653 11.3509 103.932 11.0626 103.19 10.8394C100.974 10.2 98.5946 10.4488 96.5605 11.5326Z" fill="black"/>
<path d="M79.1421 11.5326C81.0212 8.88583 86.1096 9.11691 87.9253 11.7007C87.2345 11.3509 86.5138 11.0626 85.7717 10.8394C83.5559 10.1977 81.1754 10.4466 79.1421 11.5326Z" fill="black"/>
</g>
<defs>
<clipPath id="clip0_640_5154">
<rect width="205.857" height="44" fill="white"/>
</clipPath>
</defs>
</svg>
