<svg width="32" height="32" viewBox="0 0 32 32" fill="none" xmlns="http://www.w3.org/2000/svg">
<path d="M17.2812 15.8332C17.2812 12.6116 14.7557 10 11.6407 10C8.52561 10 6 12.6122 6 15.8332C6 19.0543 8.52542 21.6667 11.6407 21.6667C14.7559 21.6667 17.2812 19.0549 17.2812 15.8332ZM23.469 15.8332C23.469 12.8008 22.2064 10.3415 20.6487 10.3415C19.0911 10.3415 17.8284 12.8008 17.8284 15.8332C17.8284 18.8657 19.0909 21.3249 20.6485 21.3249C22.2062 21.3249 23.4688 18.8665 23.4688 15.8332H23.469ZM26 15.8332C26 13.1169 25.556 10.9135 25.0081 10.9135C24.4602 10.9135 24.0164 13.1163 24.0164 15.8332C24.0164 18.5502 24.4604 20.753 25.0081 20.753C25.5558 20.753 26 18.5504 26 15.8332Z" fill="#508EEF"/>
</svg>
