<svg width="32" height="32" viewBox="0 0 32 32" fill="none" xmlns="http://www.w3.org/2000/svg">
<path d="M7.24157 16.1638C8.8784 15.2622 10.7056 14.5097 12.4128 13.7534C15.3498 12.5145 18.2986 11.2972 21.2771 10.1638C21.8566 9.97071 22.8978 9.78186 22.9999 10.6406C22.944 11.8563 22.714 13.0648 22.5563 14.2733C22.1559 16.9309 21.6931 19.5794 21.2418 22.2282C21.0863 23.1105 19.981 23.5673 19.2738 23.0027C17.5742 21.8546 15.8615 20.7178 14.1836 19.5431C13.6339 18.9846 14.1436 18.1825 14.6345 17.7837C16.0344 16.4042 17.5189 15.2321 18.8456 13.7812C19.2035 12.917 18.1461 13.6453 17.7973 13.8685C15.8809 15.1891 14.0114 16.5904 11.9909 17.751C10.9588 18.3192 9.75593 17.8337 8.72432 17.5166C7.79935 17.1337 6.44403 16.7478 7.24157 16.1638Z" fill="#508EEF"/>
</svg>
