<svg width="32" height="32" viewBox="0 0 32 32" fill="none" xmlns="http://www.w3.org/2000/svg">
<path d="M6.24158 11.8476C7.87841 10.9923 9.70563 10.2784 11.4128 9.56086C14.3499 8.38551 17.2987 7.23066 20.2772 6.1554C20.8567 5.97221 21.8979 5.79305 22 6.60774C21.9441 7.76108 21.7141 8.90758 21.5564 10.0541C21.156 12.5754 20.6932 15.088 20.2419 17.6009C20.0864 18.438 18.9811 18.8713 18.2739 18.3357C16.5743 17.2465 14.8616 16.168 13.1837 15.0536C12.6339 14.5237 13.1437 13.7628 13.6346 13.3844C15.0345 12.0757 16.519 10.9637 17.8457 9.58724C18.2036 8.76737 17.1462 9.45831 16.7974 9.67006C14.881 10.9229 13.0115 12.2523 10.9909 13.3534C9.95884 13.8924 8.75595 13.4319 7.72433 13.131C6.79936 12.7678 5.44403 12.4017 6.24158 11.8476Z" fill="#508EEF"/>
<path d="M17.6429 23.2303H20.1429L25.4748 25.9227C25.5219 25.9636 25.579 25.9896 25.6394 25.9975C25.6998 26.0053 25.7611 25.9948 25.8162 25.9672C25.8712 25.9395 25.9177 25.8958 25.9502 25.8411C25.9828 25.7865 26 25.7232 26 25.6585V17.3415C26 17.2768 25.9828 17.2135 25.9502 17.1589C25.9177 17.1042 25.8712 17.0605 25.8162 17.0328C25.7611 17.0052 25.6998 16.9947 25.6394 17.0025C25.579 17.0104 25.5219 17.0364 25.4748 17.0773L20.1429 20.2978H17.6429C17.4724 20.2978 17.3088 20.3697 17.1883 20.4977C17.0677 20.6257 17 20.7993 17 20.9803V22.5478C17 22.7288 17.0677 22.9024 17.1883 23.0304C17.3088 23.1584 17.4724 23.2303 17.6429 23.2303Z" fill="#508EEF"/>
</svg>
